<?xml version="1.0" standalone="no"?><!DOCTYPE svg PUBLIC "-//W3C//DTD SVG 1.1//EN" "http://www.w3.org/Graphics/SVG/1.1/DTD/svg11.dtd"><svg t="1773642329901" class="icon" viewBox="0 0 1024 1024" version="1.1" xmlns="http://www.w3.org/2000/svg" p-id="39981" width="16" height="16" xmlns:xlink="http://www.w3.org/1999/xlink"><path d="M921.54731 1024A43.381396 43.381396 0 0 1 878.165914 980.618604a217.199703 217.199703 0 0 0-216.965525-216.965525H362.331256a217.199703 217.199703 0 0 0-216.965525 216.965525 43.381396 43.381396 0 0 1-86.762792 0 304.079584 304.079584 0 0 1 303.728317-303.728318h298.869133a304.021039 304.021039 0 0 1 303.728317 303.728318 43.381396 43.381396 0 0 1-43.381396 43.381396zM511.73655 585.443943c-161.406895 0-292.721971-131.315076-292.721971-292.721972s131.315076-292.721971 292.721971-292.721971 292.721971 131.315076 292.721972 292.721971-131.315076 292.721971-292.721972 292.721972z m0-497.627352c-112.990681 0-204.90538 91.914699-204.90538 204.90538s91.914699 204.90538 204.90538 204.90538 204.90538-91.914699 204.90538-204.90538-91.914699-204.90538-204.90538-204.90538z" fill="#707070" p-id="39982"></path></svg>